<svg width="16" height="18" viewBox="0 0 16 18" fill="none" xmlns="http://www.w3.org/2000/svg">
<g clip-path="url(#clip0_3306_232)">
<path fill-rule="evenodd" clip-rule="evenodd" d="M13.6324 4.65755L14.2331 3.8895L12.697 2.6685L12.0865 3.43655C11.1388 2.86442 10.0825 2.49556 8.98471 2.35339V1.02407H9.96939V0.0393829H6.03066V1.02407H7.01534V2.35339C5.25296 2.57627 3.61765 3.38827 2.37488 4.65761C1.13212 5.92694 0.354877 7.57908 0.169324 9.34579C-0.016229 11.1125 0.400802 12.89 1.35273 14.3899C2.30465 15.8897 3.7356 17.0238 5.41322 17.608C7.09084 18.1921 8.91664 18.1921 10.5943 17.6079C12.2719 17.0237 13.7028 15.8896 14.6547 14.3898C15.6066 12.8899 16.0236 11.1124 15.8381 9.34567C15.6525 7.57897 14.8752 5.92687 13.6324 4.65755ZM10.9541 12.1214C10.8225 12.345 10.6081 12.5076 10.3574 12.574C10.1066 12.6404 9.83983 12.6051 9.61492 12.4759L7.64556 11.3436C7.46234 11.2706 7.30526 11.1443 7.19465 10.981C7.08405 10.8177 7.02501 10.625 7.0252 10.4278V7.21773C7.0252 6.95657 7.12896 6.7061 7.31362 6.52144C7.49829 6.33677 7.74873 6.23305 8.00988 6.23305C8.27104 6.23305 8.52151 6.33677 8.70617 6.52144C8.89084 6.7061 8.99457 6.95657 8.99457 7.21773V9.84681L10.6095 10.7724C10.8235 10.9052 10.9785 11.115 11.0426 11.3586C11.1067 11.6022 11.075 11.8611 10.9541 12.0821V12.1214Z" fill="#0A69ED"/>
</g>
<defs>
<clipPath id="clip0_3306_232">
<rect width="15.7549" height="18" fill="white" transform="translate(0.122559)"/>
</clipPath>
</defs>
</svg>
