<svg width="32" height="32" viewBox="0 0 32 32" fill="none" xmlns="http://www.w3.org/2000/svg">
<path d="M5 0.5H27C29.4853 0.5 31.5 2.51472 31.5 5V27C31.5 29.4853 29.4853 31.5 27 31.5H5C2.51472 31.5 0.5 29.4853 0.5 27V5C0.5 2.51472 2.51472 0.5 5 0.5Z" stroke="white"/>
<path d="M20.2487 9H22.6251L17.4074 14.941L23.5033 23H18.7196L14.9742 18.1026L10.6863 23H8.30996L13.8376 16.6458L8 9H12.9026L16.2863 13.4738L20.2487 9ZM19.417 21.6052H20.7343L12.2103 10.3432H10.7948L19.417 21.6052Z" fill="white"/>
</svg>
