<svg width="32" height="32" viewBox="0 0 32 32" fill="none" xmlns="http://www.w3.org/2000/svg">
<path d="M5 0.5H27C29.4853 0.5 31.5 2.51472 31.5 5V27C31.5 29.4853 29.4853 31.5 27 31.5H5C2.51472 31.5 0.5 29.4853 0.5 27V5C0.5 2.51472 2.51472 0.5 5 0.5Z" stroke="white"/>
<g clip-path="url(#clip0_3311_43)">
<path fill-rule="evenodd" clip-rule="evenodd" d="M9.49859 18.865C8.67107 18.2173 8.2573 17.8935 8.10227 17.5201C8.03406 17.3559 7.99997 17.1852 8 17.0145V14.9276H8.52174V15.9645C8.75007 15.7504 9.06843 15.5012 9.49859 15.1646L13.6359 11.9267C14.4634 11.2791 14.8771 10.9553 15.3543 10.8339C15.7739 10.7272 16.2261 10.7272 16.6457 10.8339C17.1229 10.9553 17.5366 11.2791 18.3641 11.9267L22.5014 15.1646C22.9316 15.5013 23.2499 15.7504 23.4783 15.9645V14.9276H24V17.0145C24 17.1852 23.9659 17.3559 23.8977 17.5201C23.7427 17.8935 23.3289 18.2173 22.5014 18.8649L18.3641 22.1028C17.5366 22.7505 17.1229 23.0743 16.6457 23.1956C16.2261 23.3023 15.7739 23.3023 15.3543 23.1956C14.8771 23.0743 14.4634 22.7505 13.6359 22.1028L9.49859 18.865Z" fill="#DBDBDB"/>
<path d="M9.49859 16.7778C8.67107 16.1302 8.2573 15.8063 8.10227 15.4329C7.96591 15.1045 7.96591 14.7506 8.10227 14.4222C8.2573 14.0488 8.67107 13.725 9.49859 13.0774L13.6359 9.8395C14.4634 9.19187 14.8771 8.86805 15.3543 8.74673C15.7739 8.64001 16.2261 8.64001 16.6457 8.74673C17.1229 8.86805 17.5366 9.19187 18.3641 9.8395L22.5014 13.0774C23.3289 13.725 23.7427 14.0488 23.8977 14.4222C24.0341 14.7506 24.0341 15.1045 23.8977 15.4329C23.7427 15.8063 23.3289 16.1302 22.5014 16.7778L18.3641 20.0156C17.5366 20.6632 17.1229 20.9871 16.6457 21.1084C16.2261 21.2151 15.7739 21.2151 15.3543 21.1084C14.8771 20.9871 14.4634 20.6632 13.6359 20.0156L9.49859 16.7778Z" fill="white"/>
<path d="M14.2269 12.769C13.8131 12.4452 13.6062 12.2832 13.5287 12.0965C13.4606 11.9323 13.4606 11.7554 13.5287 11.5912C13.6062 11.4045 13.8131 11.2426 14.2269 10.9188L14.8179 10.4562C15.2317 10.1324 15.4386 9.97049 15.6771 9.90983C15.887 9.85647 16.113 9.85647 16.3229 9.90983C16.5614 9.97049 16.7683 10.1324 17.1821 10.4562L17.7731 10.9188C18.1869 11.2426 18.3937 11.4045 18.4713 11.5912C18.5395 11.7554 18.5395 11.9323 18.4713 12.0965C18.3937 12.2832 18.1869 12.4452 17.7731 12.769L17.1821 13.2315C16.7683 13.5553 16.5614 13.7172 16.3229 13.7779C16.113 13.8313 15.887 13.8313 15.6771 13.7779C15.4386 13.7172 15.2317 13.5553 14.8179 13.2315L14.2269 12.769Z" fill="#FF8686"/>
<path d="M18.1671 15.8527C17.7534 15.5288 17.5465 15.3669 17.469 15.1802C17.4008 15.016 17.4008 14.8391 17.469 14.6749C17.5465 14.4882 17.7534 14.3263 18.1671 14.0024L18.7582 13.5399C19.1719 13.2161 19.3788 13.0542 19.6174 12.9935C19.8272 12.9401 20.0533 12.9401 20.2631 12.9935C20.5017 13.0542 20.7085 13.2161 21.1223 13.5399L21.7133 14.0024C22.1271 14.3263 22.334 14.4882 22.4115 14.6749C22.4797 14.8391 22.4797 15.016 22.4115 15.1802C22.334 15.3669 22.1271 15.5288 21.7133 15.8527L21.1223 16.3152C20.7085 16.639 20.5017 16.8009 20.2631 16.8616C20.0533 16.9149 19.8272 16.9149 19.6174 16.8616C19.3788 16.8009 19.1719 16.639 18.7582 16.3152L18.1671 15.8527Z" fill="#5AFF88"/>
<path d="M10.2866 15.8527C9.87289 15.5288 9.666 15.3669 9.58849 15.1802C9.52031 15.016 9.52031 14.8391 9.58849 14.6749C9.666 14.4882 9.87289 14.3263 10.2866 14.0024L10.8777 13.5399C11.2915 13.2161 11.4983 13.0542 11.7369 12.9935C11.9467 12.9401 12.1728 12.9401 12.3826 12.9935C12.6212 13.0542 12.8281 13.2161 13.2418 13.5399L17.7731 17.0861C18.1869 17.4099 18.3937 17.5718 18.4713 17.7585C18.5395 17.9227 18.5395 18.0997 18.4713 18.2639C18.3937 18.4506 18.1869 18.6125 17.7731 18.9363L17.1821 19.3989C16.7683 19.7227 16.5614 19.8846 16.3229 19.9453C16.113 19.9986 15.887 19.9986 15.6771 19.9453C15.4386 19.8846 15.2317 19.7227 14.8179 19.3989L10.2866 15.8527Z" fill="#768CFF"/>
</g>
<defs>
<clipPath id="clip0_3311_43">
<rect width="16" height="16" fill="white" transform="translate(8 8)"/>
</clipPath>
</defs>
</svg>
