<svg width="35" height="35" viewBox="0 0 35 35" fill="none" xmlns="http://www.w3.org/2000/svg">
<g clip-path="url(#clip0_3311_2)">
<path d="M26.25 0H8.75C3.91751 0 0 3.91751 0 8.75V26.25C0 31.0825 3.91751 35 8.75 35H26.25C31.0825 35 35 31.0825 35 26.25V8.75C35 3.91751 31.0825 0 26.25 0Z" fill="white"/>
<path d="M17.5 30.0781C15.7817 30.1078 14.0744 29.7981 12.476 29.1667C10.9715 28.5529 9.59981 27.6542 8.43644 26.5198C7.27325 25.3778 6.3509 24.0141 5.72394 22.5094C5.05683 20.9244 4.72181 19.2195 4.73956 17.5C4.72392 15.7875 5.05118 14.0892 5.70206 12.5052C6.32485 11.0065 7.24513 9.6496 8.40727 8.51667C9.576 7.38567 10.9527 6.49177 12.4614 5.88437C14.0613 5.23527 15.7735 4.90819 17.5 4.92187C19.2255 4.90356 20.9376 5.22567 22.5385 5.86979C24.0493 6.47971 25.4265 7.37884 26.5927 8.51667C27.7518 9.65495 28.6716 11.0135 29.2979 12.5125C29.952 14.093 30.2794 15.7896 30.2604 17.5C30.2752 19.2122 29.9402 20.9093 29.276 22.4875C28.6465 23.9908 27.7244 25.354 26.5635 26.4979C25.4021 27.6401 24.0302 28.5464 22.5239 29.1667C20.9256 29.7981 19.2183 30.1078 17.5 30.0781ZM17.5 26.024C18.6237 26.036 19.7379 25.8176 20.7739 25.3823C21.7695 24.9671 22.6704 24.3544 23.4224 23.5811C24.1744 22.8078 24.7617 21.8901 25.1489 20.8833C25.5711 19.8056 25.7839 18.6574 25.776 17.5C25.7893 16.3405 25.5789 15.1892 25.1562 14.1094C24.7568 13.099 24.1621 12.1773 23.4062 11.3969C22.6601 10.6277 21.7643 10.0197 20.7739 9.61042C18.6653 8.77992 16.3201 8.77992 14.2114 9.61042C13.2211 10.0197 12.3252 10.6277 11.5791 11.3969C10.8233 12.1773 10.2286 13.099 9.82914 14.1094C9.41149 15.1902 9.20601 16.3414 9.22394 17.5C9.2119 18.6618 9.42228 19.8152 9.84373 20.8979C10.2309 21.9046 10.8183 22.8224 11.5702 23.5957C12.3222 24.369 13.2232 24.9817 14.2187 25.3969C15.2581 25.8282 16.3748 26.0416 17.5 26.024ZM24.551 35L15.5021 19.9354H20.1833L29.3052 35H24.551Z" fill="#0A69ED"/>
</g>
<defs>
<clipPath id="clip0_3311_2">
<rect width="35" height="35" fill="white"/>
</clipPath>
</defs>
</svg>
